<svg width="200" height="140" viewBox="0 0 200 140" fill="none" xmlns="http://www.w3.org/2000/svg">
<path d="M100 0L0 37.5544L100 87.6258L147.629 63.7774L102.948 50.097C102.027 50.5389 101.02 50.7694 100 50.7716C98.1828 50.7716 96.44 50.0487 95.155 48.7619C93.87 47.4751 93.1482 45.7298 93.1482 43.91C93.1482 42.0902 93.87 40.3449 95.155 39.0581C96.44 37.7713 98.1828 37.0484 100 37.0484L98.8669 40.7374L106.805 43.1831L106.809 43.2071L118.523 46.7945L185.22 67.3446V72.5534C184.297 73.1819 183.542 74.0265 183.02 75.0138C182.497 76.001 182.223 77.1012 182.222 78.2185C182.223 79.3615 182.51 80.486 183.055 81.49C183.6 82.494 184.388 83.3457 185.345 83.9677C182.226 95.7718 182.222 122.554 182.222 133.111C189.074 137.569 189.074 137.732 195.926 133.111C195.926 122.555 195.922 95.7782 192.804 83.9715C193.762 83.349 194.549 82.4966 195.094 81.4918C195.64 80.487 195.925 79.3616 195.926 78.2181C195.926 77.0995 195.652 75.9979 195.13 75.0093C194.607 74.0206 193.852 73.1749 192.928 72.5457V61.6443L167.523 53.8165L200 37.5544L100 0ZM41.5979 68.3545L35.9781 102.122C47.1873 103.59 60.5959 110.115 72.9224 117.83C79.9327 122.218 86.4989 127.034 91.8317 131.707C95.0915 134.563 97.8173 137.304 100 140C102.183 137.303 104.908 134.563 108.168 131.707C113.501 127.034 120.067 122.218 127.078 117.83C139.404 110.115 152.813 103.59 164.022 102.122L158.401 68.3545H155.725L100 96.2568L44.2744 68.3545H41.5979Z" fill="#0156D3"/>
</svg>
