<svg width="38" height="46" viewBox="0 0 38 46" fill="none" xmlns="http://www.w3.org/2000/svg">
<path d="M18.75 0L0 8.33333V20.8333C0 32.3958 8 43.2083 18.75 45.8333C29.5 43.2083 37.5 32.3958 37.5 20.8333V8.33333L18.75 0ZM18.75 12.5C21.6667 12.5 24.5833 14.7917 24.5833 17.7083V20.8333C25.8333 20.8333 27.0833 22.0833 27.0833 23.5417V30.8333C27.0833 32.0833 25.8333 33.3333 24.375 33.3333H12.9167C11.6667 33.3333 10.4167 32.0833 10.4167 30.625V23.3333C10.4167 22.0833 11.6667 20.8333 12.9167 20.8333V17.7083C12.9167 14.7917 15.8333 12.5 18.75 12.5ZM18.75 15C17.0833 15 15.625 16.0417 15.625 17.7083V20.8333H21.875V17.7083C21.875 16.0417 20.4167 15 18.75 15Z" fill="#0156D3"/>
</svg>
