<svg width="34" height="42" viewBox="0 0 34 42" fill="none" xmlns="http://www.w3.org/2000/svg">
    <path
        d="M27.0833 14.5833H10.4167V10.4167C10.4167 8.75 11.0417 7.29167 12.2917 6.04167C14.7917 3.54167 18.75 3.54167 21.0417 6.04167C21.875 6.875 22.2917 7.91667 22.7083 8.95833C22.9167 10 24.1667 10.625 25.2083 10.4167C26.25 10.2083 27.0833 8.95833 26.6667 7.91667C26.25 6.04167 25.2083 4.375 23.9583 3.125C22.0833 1.04167 19.375 0 16.6667 0C10.8333 0 6.25 4.58333 6.25 10.4167V14.5833C2.70833 14.5833 0 17.2917 0 20.8333V35.4167C0 38.9583 2.70833 41.6667 6.25 41.6667H27.0833C30.625 41.6667 33.3333 38.9583 33.3333 35.4167V20.8333C33.3333 17.2917 30.625 14.5833 27.0833 14.5833ZM18.9583 28.125L18.75 28.3333V31.25C18.75 32.5 17.9167 33.3333 16.6667 33.3333C15.4167 33.3333 14.5833 32.5 14.5833 31.25V28.3333C13.3333 27.0833 13.125 25.2083 14.375 23.9583C15.625 22.7083 17.5 22.5 18.75 23.75C20 24.7917 20.2083 26.875 18.9583 28.125Z"
        fill="#0156D3" />
</svg>
