<svg width="34" height="44" viewBox="0 0 34 44" fill="none" xmlns="http://www.w3.org/2000/svg">
<path d="M4.16667 43.75C3.02083 43.75 2.04028 43.3424 1.225 42.5271C0.409722 41.7118 0.00138889 40.7306 0 39.5833V18.75C0 17.6042 0.408333 16.6236 1.225 15.8083C2.04167 14.9931 3.02222 14.5847 4.16667 14.5833H22.9167V10.4167C22.9167 8.68056 22.309 7.20486 21.0937 5.98959C19.8785 4.77431 18.4028 4.16667 16.6667 4.16667C15.2083 4.16667 13.9319 4.60972 12.8375 5.49584C11.7431 6.38195 11.0056 7.48403 10.625 8.80208C10.4861 9.2882 10.1993 9.67917 9.76458 9.975C9.32986 10.2708 8.85278 10.4181 8.33333 10.4167C7.74306 10.4167 7.24861 10.2257 6.85 9.84375C6.45139 9.46181 6.30347 9.01042 6.40625 8.48958C6.78819 6.12847 7.94236 4.12292 9.86875 2.47292C11.7951 0.822918 14.0611 -0.00138714 16.6667 1.75217e-06C19.5486 1.75217e-06 22.0056 1.01597 24.0375 3.04792C26.0694 5.07986 27.0847 7.53611 27.0833 10.4167V14.5833H29.1667C30.3125 14.5833 31.2937 14.9917 32.1104 15.8083C32.9271 16.625 33.3347 17.6056 33.3333 18.75V39.5833C33.3333 40.7292 32.9257 41.7104 32.1104 42.5271C31.2951 43.3437 30.3139 43.7514 29.1667 43.75H4.16667ZM16.6667 33.3333C17.8125 33.3333 18.7937 32.9257 19.6104 32.1104C20.4271 31.2951 20.8347 30.3139 20.8333 29.1667C20.8319 28.0194 20.4243 27.0389 19.6104 26.225C18.7965 25.4111 17.8153 25.0028 16.6667 25C15.5181 24.9972 14.5375 25.4056 13.725 26.225C12.9125 27.0444 12.5042 28.025 12.5 29.1667C12.4958 30.3083 12.9042 31.2896 13.725 32.1104C14.5458 32.9313 15.5264 33.3389 16.6667 33.3333Z" fill="#0156D3"/>
</svg>
