<svg width="196" height="145" viewBox="0 0 196 145" fill="none" xmlns="http://www.w3.org/2000/svg">
<path d="M191.517 4.39146C192.388 5.25285 193.142 6.20147 193.779 7.23732C195.232 9.63341 196 12.373 196 15.1698V93.709C196 96.5058 195.224 99.2617 193.762 101.65C192.914 103.015 191.858 104.24 190.635 105.281C187.899 107.619 184.428 108.903 180.826 108.903H95.7706C86.3315 125.503 71.2657 138.167 53.3039 144.599L52.1933 145L51.0908 144.575C36.2392 138.859 23.4407 128.815 14.349 115.74C4.97908 102.354 -0.0323572 86.3971 0.000157219 70.0508C-0.00157017 64.2762 0.619983 58.5183 1.85399 52.8774L2.27866 50.9393L4.20599 50.465C4.65788 50.356 5.09888 50.2415 5.52899 50.1215C22.8344 45.554 38.5604 36.3284 51.0009 23.4457L51.3276 23.094L53.2223 21.1395V15.1698C53.2223 12.3648 53.9981 9.60888 55.4599 7.22097C56.0969 6.18512 56.8537 5.24195 57.7303 4.39146C60.331 1.78189 63.7979 0.219214 67.4731 0H181.757C185.438 0.215276 188.912 1.77825 191.517 4.39146ZM68.4041 7.22097C68.1319 7.22097 67.8651 7.23187 67.6038 7.25368H66.4441L66.6319 7.42542L122.288 56.7292C122.937 57.3035 123.773 57.6205 124.64 57.6205C125.506 57.6205 126.342 57.3035 126.992 56.7292L182.648 7.42542L182.835 7.25368H181.643C181.377 7.22967 181.11 7.21876 180.843 7.22097H68.4041ZM61.0704 12.1685C60.6877 13.123 60.4882 14.1412 60.4824 15.1698V28.1397C72.0026 38.5407 85.8238 46.0549 100.809 50.0643L101.74 50.3014L102.206 50.4241L104.141 50.8984L104.558 52.8529C104.879 54.384 105.151 55.9249 105.375 57.4734L108.78 54.4558L61.0704 12.1685ZM19.0203 111.087C27.1942 123.209 38.7718 132.634 52.2913 138.172C68.3954 132.094 81.8591 120.55 90.3358 105.552C98.8125 90.5543 101.765 73.0533 98.6779 56.0995C81.6015 51.4641 65.9876 42.5446 53.3121 30.1841C40.5774 42.599 24.8811 51.5432 7.71765 56.1649C6.84138 60.7414 6.40112 65.3909 6.40282 70.0508C6.46175 84.6782 10.8528 98.9593 19.0203 111.087ZM106.273 69.3965C106.275 80.5083 103.947 91.4967 99.4374 101.65H182.835L182.607 101.445L135.028 59.3052L126.984 66.4198C126.339 67.0003 125.503 67.3214 124.636 67.3214C123.769 67.3214 122.932 67.0003 122.288 66.4198L114.244 59.3052L106.208 66.4198C106.251 67.4121 106.273 68.4043 106.273 69.3965ZM188.176 96.7021C188.579 95.7565 188.779 94.7369 188.764 93.709L188.773 15.1779C188.766 14.1582 188.57 13.1486 188.193 12.2012L140.499 54.4639L188.176 96.7021ZM53.9736 41.4695C64.038 51.056 76.3286 57.9811 89.7354 61.6195C90.3343 64.9287 90.6555 68.2625 90.6991 71.6209V72.2915C90.6829 86.2273 85.7514 99.7095 76.7749 110.359L76.7178 110.424C70.2289 118.118 61.8779 124.017 52.4628 127.557C41.5978 123.113 32.2942 115.541 25.7302 105.799C19.1663 96.0569 15.6373 84.5832 15.5903 72.8312C15.5903 69.0749 15.9415 65.354 16.6438 61.6685C30.4326 57.9573 43.0442 50.7758 53.2794 40.8071L53.9736 41.4695ZM28.0281 82.7917L50.5028 105.297L81.7974 73.9679L74.8803 67.0495L50.5191 91.452L34.9371 75.857L28.0281 82.7917Z" fill="#0156D3"/>
</svg>
