<svg width="254" height="215" viewBox="0 0 254 215" fill="none" xmlns="http://www.w3.org/2000/svg">
<path d="M0 20C0 8.9543 8.95431 0 20 0H234C245.046 0 254 8.95431 254 20V134C254 178.183 218.183 214 174 214H80C35.8172 214 0 178.183 0 134V20Z" fill="#11182B"/>
<path d="M29 68C29 62.4772 33.4772 58 39 58H215C220.523 58 225 62.4772 225 68V82C225 87.5228 220.523 92 215 92H39C33.4771 92 29 87.5228 29 82V68Z" fill="#E4EBFD"/>
<path d="M29 68C29 62.4772 33.4772 58 39 58H57C62.5228 58 67 62.4772 67 68V82C67 87.5228 62.5228 92 57 92H39C33.4771 92 29 87.5228 29 82V68Z" fill="#0156D3"/>
<path d="M29 114C29 108.477 33.4772 104 39 104H215C220.523 104 225 108.477 225 114V127C225 132.523 220.523 137 215 137H39C33.4771 137 29 132.523 29 127V114Z" fill="#E4EBFD"/>
<path d="M29 114C29 108.477 33.4772 104 39 104H57C62.5228 104 67 108.477 67 114V127C67 132.523 62.5228 137 57 137H39C33.4771 137 29 132.523 29 127V114Z" fill="#0156D3"/>
<path d="M56 212.136C56.84 198.571 68.0864 188 81.6772 188H170.455C184.011 188 195 198.989 195 212.545L191.014 213.364L186.032 214.182L177.563 215H73.4373L66.4624 214.182L61.4803 213.364L56 212.136Z" fill="white"/>
<path d="M97.02 207V196.35H99.48V204.84H104.64V207H97.02Z" fill="#0156D3"/>
<path d="M113.269 207.09C112.469 207.09 111.744 206.94 111.094 206.64C110.454 206.33 109.899 205.92 109.429 205.41C108.969 204.89 108.614 204.31 108.364 203.67C108.114 203.02 107.989 202.35 107.989 201.66C107.989 200.95 108.119 200.275 108.379 199.635C108.649 198.995 109.019 198.425 109.489 197.925C109.969 197.415 110.534 197.015 111.184 196.725C111.834 196.435 112.544 196.29 113.314 196.29C114.104 196.29 114.819 196.445 115.459 196.755C116.109 197.055 116.664 197.465 117.124 197.985C117.594 198.505 117.954 199.09 118.204 199.74C118.454 200.38 118.579 201.035 118.579 201.705C118.579 202.415 118.449 203.09 118.189 203.73C117.929 204.37 117.559 204.945 117.079 205.455C116.599 205.955 116.034 206.355 115.384 206.655C114.744 206.945 114.039 207.09 113.269 207.09ZM110.494 201.69C110.494 202.1 110.554 202.5 110.674 202.89C110.794 203.27 110.969 203.61 111.199 203.91C111.439 204.21 111.734 204.45 112.084 204.63C112.434 204.81 112.834 204.9 113.284 204.9C113.754 204.9 114.164 204.81 114.514 204.63C114.864 204.44 115.154 204.19 115.384 203.88C115.614 203.57 115.784 203.225 115.894 202.845C116.014 202.455 116.074 202.06 116.074 201.66C116.074 201.25 116.014 200.855 115.894 200.475C115.774 200.095 115.594 199.755 115.354 199.455C115.114 199.145 114.819 198.905 114.469 198.735C114.119 198.565 113.724 198.48 113.284 198.48C112.814 198.48 112.404 198.57 112.054 198.75C111.714 198.93 111.424 199.175 111.184 199.485C110.954 199.785 110.779 200.13 110.659 200.52C110.549 200.9 110.494 201.29 110.494 201.69Z" fill="#0156D3"/>
<path d="M127.515 207.075C126.815 207.075 126.155 206.945 125.535 206.685C124.915 206.415 124.37 206.04 123.9 205.56C123.43 205.07 123.06 204.495 122.79 203.835C122.53 203.165 122.4 202.42 122.4 201.6C122.4 200.86 122.535 200.17 122.805 199.53C123.075 198.89 123.45 198.325 123.93 197.835C124.41 197.345 124.97 196.965 125.61 196.695C126.26 196.415 126.96 196.275 127.71 196.275C128.69 196.275 129.555 196.485 130.305 196.905C131.055 197.325 131.61 197.89 131.97 198.6L130.14 199.98C129.9 199.51 129.55 199.14 129.09 198.87C128.64 198.6 128.15 198.465 127.62 198.465C127.22 198.465 126.85 198.55 126.51 198.72C126.18 198.88 125.89 199.11 125.64 199.41C125.4 199.7 125.215 200.04 125.085 200.43C124.955 200.82 124.89 201.24 124.89 201.69C124.89 202.15 124.96 202.575 125.1 202.965C125.24 203.355 125.435 203.695 125.685 203.985C125.935 204.265 126.23 204.485 126.57 204.645C126.92 204.805 127.305 204.885 127.725 204.885C128.235 204.885 128.72 204.76 129.18 204.51C129.65 204.25 130.08 203.87 130.47 203.37V205.8C129.62 206.65 128.635 207.075 127.515 207.075ZM130.32 203.22H128.25V201.435H132.36V207H130.32V203.22Z" fill="#0156D3"/>
<path d="M136.987 207V196.35H139.447V207H136.987Z" fill="#0156D3"/>
<path d="M146.944 200.91V207H144.484V196.35H146.434L151.369 202.62V196.35H153.829V207H151.819L146.944 200.91Z" fill="#0156D3"/>
<path d="M46.654 116.427C47.338 114.787 49.662 114.787 50.346 116.427L52.9743 122.73C53.5236 124.048 52.5557 125.5 51.1283 125.5H45.8717C44.4443 125.5 43.4764 124.048 44.0257 122.73L46.654 116.427Z" fill="white"/>
<path d="M52 71.8889C52 74.0367 50.2091 75.7778 48 75.7778C45.7909 75.7778 44 74.0367 44 71.8889C44 69.7411 45.7909 68 48 68C50.2091 68 52 69.7411 52 71.8889Z" fill="white"/>
<path d="M45.6 75H50.4V82H45.6V75Z" fill="white"/>
</svg>
