<svg width="44" height="44" viewBox="0 0 44 44" fill="none" xmlns="http://www.w3.org/2000/svg">
<path d="M21.875 0C27.6766 0 33.2406 2.30468 37.343 6.40704C41.4453 10.5094 43.75 16.0734 43.75 21.875C43.75 27.6766 41.4453 33.2406 37.343 37.343C33.2406 41.4453 27.6766 43.75 21.875 43.75C16.0734 43.75 10.5094 41.4453 6.40704 37.343C2.30468 33.2406 0 27.6766 0 21.875C0 16.0734 2.30468 10.5094 6.40704 6.40704C10.5094 2.30468 16.0734 0 21.875 0ZM19.15 26.1906L14.2906 21.3281C14.1164 21.1539 13.9096 21.0157 13.682 20.9214C13.4544 20.8272 13.2104 20.7786 12.9641 20.7786C12.7177 20.7786 12.4737 20.8272 12.2461 20.9214C12.0185 21.0157 11.8117 21.1539 11.6375 21.3281C11.2857 21.68 11.088 22.1571 11.088 22.6547C11.088 23.1522 11.2857 23.6294 11.6375 23.9812L17.825 30.1688C17.9987 30.3438 18.2054 30.4828 18.433 30.5776C18.6607 30.6725 18.9049 30.7213 19.1516 30.7213C19.3982 30.7213 19.6424 30.6725 19.8701 30.5776C20.0978 30.4828 20.3044 30.3438 20.4781 30.1688L33.2906 17.3531C33.4672 17.1796 33.6076 16.9729 33.7038 16.7449C33.8001 16.5169 33.8502 16.272 33.8514 16.0245C33.8525 15.777 33.8047 15.5317 33.7105 15.3028C33.6164 15.0739 33.4779 14.8659 33.303 14.6908C33.1281 14.5156 32.9202 14.3769 32.6914 14.2825C32.4626 14.1881 32.2174 14.14 31.9699 14.1408C31.7224 14.1417 31.4775 14.1915 31.2493 14.2875C31.0212 14.3835 30.8143 14.5237 30.6406 14.7L19.15 26.1906Z" fill="#0156D3"/>
</svg>
